<svg width="3131" height="1048" viewBox="0 0 3131 1048" fill="none" xmlns="http://www.w3.org/2000/svg">
<path d="M0 71.733C0 32.116 32.116 0 71.733 0H380.883H498.957L630.679 131.405L761.767 261.857V523.714V975.696C761.767 1015.31 729.651 1047.43 690.034 1047.43H71.733C32.1159 1047.43 0 1015.31 0 975.696V71.733Z" fill="#ECE7FF"/>
<path d="M494.657 439.567V526.88H415.424V728.373C415.424 755.487 428.63 769.044 455.04 769.044C459.525 769.044 464.384 768.671 469.616 767.925C475.098 767.179 479.832 766.308 483.818 765.313L502.132 851.88C477.465 859.094 453.546 862.701 430.374 862.701C389.013 862.701 356.872 852.253 333.949 831.358C311.276 810.462 299.939 781.233 299.939 743.671V526.88H243.131V439.567H299.939V374.966L415.424 308.516V439.567H494.657Z" fill="#6344E1"/>
<path d="M570.689 261.857H761.766L498.956 0.000177503V190.124C498.956 229.741 531.072 261.857 570.689 261.857Z" fill="#CCBFFF"/>
<path d="M2881.35 899.779C2869.82 899.779 2858.98 898.9 2848.82 897.141C2838.86 895.383 2830.56 893.235 2823.92 890.695L2844.72 823.007L2847.65 823.593C2862.89 827.891 2875.98 828.868 2886.92 826.524C2898.05 824.179 2906.25 815.584 2911.53 800.738L2917.1 784.329L2799.89 447.355H2895.12L2963.1 687.925H2966.62L3034.89 447.355H3131L3002.95 812.752C2993.77 839.319 2979.61 860.416 2960.46 876.044C2941.52 891.867 2915.14 899.779 2881.35 899.779Z" fill="#343434"/>
<path d="M2753.3 338.352V774.952H2662.46V338.352H2753.3Z" fill="#343434"/>
<path d="M2283.88 897.435V447.356H2373.25V502.737H2377.35C2381.45 493.751 2387.22 484.667 2394.64 475.486C2402.26 466.305 2412.22 458.686 2424.53 452.631C2437.03 446.379 2452.37 443.254 2470.53 443.254C2494.56 443.254 2516.54 449.505 2536.46 462.007C2556.58 474.314 2572.7 492.97 2584.81 517.974C2596.92 542.978 2602.98 574.234 2602.98 611.741C2602.98 648.075 2597.12 678.842 2585.4 704.042C2573.68 729.046 2557.76 747.995 2537.63 760.888C2517.51 773.781 2494.95 780.227 2469.95 780.227C2452.37 780.227 2437.42 777.297 2425.11 771.437C2413 765.576 2403.04 758.251 2395.23 749.46C2387.61 740.474 2381.65 731.488 2377.35 722.502H2374.72V897.435H2283.88ZM2372.66 611.448C2372.66 640.359 2378.62 663.703 2390.54 681.479C2402.65 699.256 2419.64 708.144 2441.52 708.144C2463.79 708.144 2480.79 699.158 2492.51 681.186C2504.23 663.019 2510.09 639.773 2510.09 611.448C2510.09 582.927 2504.23 559.778 2492.51 542.002C2480.98 524.225 2463.99 515.337 2441.52 515.337C2419.64 515.337 2402.65 524.03 2390.54 541.416C2378.62 558.802 2372.66 582.145 2372.66 611.448Z" fill="#343434"/>
<path d="M1735.35 774.953V447.356H1821.49V505.667H1825.6C1832.43 486.328 1843.86 471.091 1859.88 459.956C1875.9 448.821 1894.94 443.254 1917.02 443.254C1939.48 443.254 1958.53 448.919 1974.16 460.249C1989.98 471.384 2000.43 486.523 2005.51 505.667H2009.03C2015.86 486.719 2027.98 471.579 2045.36 460.249C2062.94 448.919 2083.75 443.254 2107.77 443.254C2138.25 443.254 2163.06 452.924 2182.2 472.263C2201.54 491.602 2211.21 519.048 2211.21 554.602V774.953H2120.37V572.769C2120.37 554.406 2115.49 540.732 2105.72 531.746C2096.15 522.76 2084.14 518.267 2069.68 518.267C2053.27 518.267 2040.38 523.541 2031 534.09C2021.82 544.444 2017.23 558.118 2017.23 575.113V774.953H1929.03V570.425C1929.03 554.602 1924.44 542.002 1915.26 532.625C1906.27 523.053 1894.36 518.267 1879.51 518.267C1864.27 518.267 1851.58 523.834 1841.42 534.969C1831.26 545.909 1826.18 560.462 1826.18 578.629V774.953H1735.35Z" fill="#343434"/>
<path d="M1525.25 781.399C1491.65 781.399 1462.74 774.562 1438.52 760.888C1414.29 747.214 1395.64 727.776 1382.55 702.577C1369.46 677.182 1362.92 647.196 1362.92 612.62C1362.92 579.02 1369.36 549.523 1382.26 524.127C1395.35 498.732 1413.71 478.905 1437.35 464.644C1460.98 450.384 1488.82 443.254 1520.86 443.254C1549.77 443.254 1575.85 449.407 1599.09 461.714C1622.53 474.021 1641.09 492.481 1654.77 517.095C1668.64 541.709 1675.57 572.573 1675.57 609.689V634.303H1452.29C1453.27 659.112 1460.49 678.549 1473.97 692.614C1487.45 706.679 1505.03 713.712 1526.72 713.712C1541.76 713.712 1554.65 710.488 1565.39 704.042C1576.33 697.595 1584.15 688.219 1588.84 675.912L1672.64 681.479C1666.19 711.563 1650.08 735.786 1624.29 754.148C1598.7 772.316 1565.69 781.399 1525.25 781.399ZM1452.88 578.336H1588.54C1586.39 557.629 1579.75 541.22 1568.62 529.109C1557.48 516.997 1541.86 510.942 1521.73 510.942C1501.42 510.942 1485.3 517.29 1473.39 529.988C1461.67 542.49 1454.83 558.606 1452.88 578.336Z" fill="#343434"/>
<path d="M1034.73 414.537V338.352H1393.1V414.537H1260.07V774.952H1168.06V414.537H1034.73Z" fill="#343434"/>
</svg>
